<?xml version="1.0" encoding="iso-8859-1"?>
<!-- Generator: Adobe Illustrator 16.0.0, SVG Export Plug-In . SVG Version: 6.00 Build 0)  -->
<!DOCTYPE svg PUBLIC "-//W3C//DTD SVG 1.1//EN" "http://www.w3.org/Graphics/SVG/1.1/DTD/svg11.dtd">
<svg version="1.1" id="Capa_1" xmlns="http://www.w3.org/2000/svg" xmlns:xlink="http://www.w3.org/1999/xlink" x="0px" y="0px"
	 width="45.883px" height="45.883px" viewBox="0 0 45.883 45.883" style="enable-background:new 0 0 45.883 45.883;"
	 xml:space="preserve">
<g>
	<g>
		<path d="M10.637,17.441c-1.247-0.311-2.59-0.667-2.594-0.668c-0.549-0.156-2.206,0.761-3.489,2.457
			c-1.347-0.335-2.292-0.571-2.294-0.572c-0.349-0.099-1.71,0.783-2.129,2.257c-0.418,1.474,0.265,2.983,0.611,3.083
			c0.002,0,0.896,0.285,2.179,0.695c0.146,2.249,1.104,4.063,1.672,4.226c0.005,0.001,0.997,0.278,2.416,0.733
			c-0.706-2.06-0.437-4.384,0.256-6.817C7.864,20.721,8.843,19.101,10.637,17.441z"/>
		<path d="M44.68,15.251c-0.025-0.008-13.036-3.125-20.625-5.015c-1.548,1.112-2.706,2.722-3.47,5.417
			c-0.461,1.625-0.646,3.042-0.657,4.184c-0.998-0.243-1.985-0.485-2.938-0.72c-0.024-1.381,0.242-2.841,0.667-4.342
			c0.602-2.114,1.579-3.734,3.374-5.392c-1.249-0.311-2.59-0.667-2.595-0.669c-0.548-0.157-2.206,0.761-3.488,2.456
			c-1.349-0.335-2.292-0.57-2.296-0.571c-0.348-0.099-1.71,0.783-2.127,2.256c-0.42,1.474,0.263,2.982,0.609,3.082
			c0.004,0.001,0.897,0.286,2.18,0.696c0.04,0.612,0.141,1.191,0.275,1.714c-1.512,1.111-2.645,2.712-3.397,5.364
			c-1.008,3.548-0.701,6.116-0.131,6.953c7.555,2.414,20.269,6.478,20.294,6.483c1.372,0.392,3.365-2.391,4.451-6.212
			c0.355-1.253,0.57-2.464,0.648-3.537c3.095,0.989,5.282,1.688,5.293,1.69c1.372,0.391,3.366-2.393,4.449-6.212
			C46.285,19.059,46.053,15.641,44.68,15.251z M32.938,30.404c-0.824,2.896-2.313,5.006-3.33,4.718
			c-1.016-0.288-1.174-2.868-0.352-5.763c0.821-2.896,2.313-5.006,3.329-4.718C33.602,24.93,33.759,27.511,32.938,30.404z
			 M43.329,22.347c-0.823,2.895-2.314,5.006-3.329,4.717c-1.016-0.288-1.174-2.868-0.352-5.762c0.821-2.896,2.312-5.007,3.328-4.718
			C43.993,16.871,44.152,19.45,43.329,22.347z"/>
	</g>
</g>
<g>
</g>
<g>
</g>
<g>
</g>
<g>
</g>
<g>
</g>
<g>
</g>
<g>
</g>
<g>
</g>
<g>
</g>
<g>
</g>
<g>
</g>
<g>
</g>
<g>
</g>
<g>
</g>
<g>
</g>
</svg>
